HIERARCHY
ROOT Hips
{
	OFFSET 0.000000 0.000000 0.000000
	CHANNELS 6 Xposition Yposition Zposition Zrotation Yrotation Xrotation 
	JOINT LeftUpLeg_virtual
	{
		OFFSET 0.000000 0.000000 0.000000
		CHANNELS 3 Zrotation Yrotation Xrotation
		JOINT LeftUpLeg
		{
			OFFSET 10.205400 -3.823500 0.155100
			CHANNELS 3 Zrotation Yrotation Xrotation
			JOINT LeftLeg
			{
				OFFSET 0.708757 -12.982077 0.567790
				CHANNELS 3 Zrotation Yrotation Xrotation
				JOINT LeftFoot
				{
					OFFSET -0.708756 -10.717838 -2.184338
					CHANNELS 3 Zrotation Yrotation Xrotation
					JOINT LeftToeBase
					{
						OFFSET 0.108149 -7.191104 7.560241
						CHANNELS 3 Zrotation Yrotation Xrotation
						End Site
						{
							OFFSET 0.000000 0.000000 0.000000
						}
					}
				}
			}
		}
	}
	JOINT RightUpLeg_virtual
	{
		OFFSET 0.000000 0.000000 0.000000
		CHANNELS 3 Zrotation Yrotation Xrotation
		JOINT RightUpLeg
		{
			OFFSET -10.205400 -3.823500 0.005500
			CHANNELS 3 Zrotation Yrotation Xrotation
			JOINT RightLeg
			{
				OFFSET -0.708756 -12.982134 0.610632
				CHANNELS 3 Zrotation Yrotation Xrotation
				JOINT RightFoot
				{
					OFFSET 0.708754 -10.717769 -1.945823
					CHANNELS 3 Zrotation Yrotation Xrotation
					JOINT RightToeBase
					{
						OFFSET -0.108140 -7.191069 7.372968
						CHANNELS 3 Zrotation Yrotation Xrotation
						End Site
						{
							OFFSET 0.000000 0.000000 0.000000
						}
					}
				}
			}
		}
	}
	JOINT Spine_virtual
	{
		OFFSET 0.000000 0.000000 0.000000
		CHANNELS 3 Zrotation Yrotation Xrotation
		JOINT Spine
		{
			OFFSET 0.000000 6.876099 0.125700
			CHANNELS 3 Zrotation Yrotation Xrotation
			JOINT Spine1
			{
				OFFSET 0.000000 8.022060 0.146608
				CHANNELS 3 Zrotation Yrotation Xrotation
				JOINT Spine2
				{
					OFFSET 0.000000 9.168068 0.167552
					CHANNELS 3 Zrotation Yrotation Xrotation
					JOINT Neck_virtual
					{
						OFFSET 0.000000 0.000000 0.000000
						CHANNELS 3 Zrotation Yrotation Xrotation
						JOINT Neck
						{
							OFFSET 0.000000 10.314075 0.188496
							CHANNELS 3 Zrotation Yrotation Xrotation
							JOINT Head
							{
								OFFSET 0.000000 7.643700 -2.377400
								CHANNELS 3 Zrotation Yrotation Xrotation
								End Site
								{
									OFFSET 0.000000 0.000000 0.000000
								}
							}
						}
					}
					JOINT LeftShoulder_virtual
					{
						OFFSET 0.000000 0.000000 0.000000
						CHANNELS 3 Zrotation Yrotation Xrotation
						JOINT LeftShoulder
						{
							OFFSET 4.392200 8.824978 0.174984
							CHANNELS 3 Zrotation Yrotation Xrotation
							JOINT LeftArm
							{
								OFFSET 8.771219 -2.981674 -0.026999
								CHANNELS 3 Zrotation Yrotation Xrotation
								JOINT LeftForeArm
								{
									OFFSET 8.512804 0.000000 -0.000000
									CHANNELS 3 Zrotation Yrotation Xrotation
									JOINT LeftHand
									{
										OFFSET 18.484802 0.000000 -0.000000
										CHANNELS 3 Zrotation Yrotation Xrotation
										End Site
										{
											OFFSET 0.000000 0.000000 0.000000
										}
									}
								}
							}
						}
					}
					JOINT RightShoulder_virtual
					{
						OFFSET 0.000000 0.000000 0.000000
						CHANNELS 3 Zrotation Yrotation Xrotation
						JOINT RightShoulder
						{
							OFFSET -4.392200 8.824993 0.141379
							CHANNELS 3 Zrotation Yrotation Xrotation
							JOINT RightArm
							{
								OFFSET -8.771282 -2.981682 -0.094208
								CHANNELS 3 Zrotation Yrotation Xrotation
								JOINT RightForeArm
								{
									OFFSET -8.494598 0.000000 0.000000
									CHANNELS 3 Zrotation Yrotation Xrotation
									JOINT RightHand
									{
										OFFSET -18.483803 0.000000 0.000001
										CHANNELS 3 Zrotation Yrotation Xrotation
										End Site
										{
											OFFSET 0.000000 0.000000 0.000000
										}
									}
								}
							}
						}
					}
				}
			}
		}
	}
}
MOTION
Frames: 14
Frame Time: 0.033333
-1.340682 22.924234 1.315665 -179.263574 6.604367 -179.989760 2.971908 -7.803940 -16.341880 -22.758774 4.322014 -63.955733 24.603847 -0.920122 70.901482 -16.432542 -17.698584 9.613291 0.000000 0.000000 0.000000 4.754904 -1.960491 -13.958559 22.413464 11.106532 -68.893495 -11.198937 -4.892978 78.535878 -9.491067 12.147243 20.410782 0.000000 0.000000 0.000000 -0.095954 -0.089337 -9.721482 -1.053164 -1.910586 3.099442 -1.050023 -2.028696 9.243553 -0.109848 0.039962 -0.040110 -1.854133 -0.819886 13.495923 -4.192081 4.605835 -1.418846 0.000000 0.000000 0.000000 0.844783 -0.539664 9.504176 -10.163280 -15.232792 11.396020 -27.915745 -11.389089 21.893546 -48.174680 -87.364034 62.195498 0.000000 0.000000 0.000000 -3.684850 1.006701 9.178852 30.320787 25.679971 14.524044 32.775926 15.666620 8.783826 -41.454402 82.961486 -44.194210 0.000000 0.000000 0.000000 
-1.360372 23.044874 1.182531 -179.251034 6.590234 -179.931075 2.716181 -7.654885 -15.145752 -22.669637 3.939256 -64.849129 24.032688 -0.532038 70.949772 -15.896782 -17.388943 9.289962 0.000000 0.000000 0.000000 4.926789 -1.786872 -12.728881 22.300605 10.731825 -69.905490 -10.441011 -4.770886 78.704659 -10.192667 12.130945 19.913236 0.000000 0.000000 0.000000 -0.122800 0.124527 -8.867455 -0.686713 -2.055608 3.976219 -1.202092 -1.809112 9.461588 -0.109832 0.049467 -0.018468 -2.084890 -0.717923 13.553009 -4.813414 3.481908 -3.820377 0.000000 0.000000 0.000000 0.708885 -0.314591 9.676567 -10.056118 -14.931557 11.262341 -28.607972 -11.798867 18.876503 -16.597059 -83.765044 29.600647 0.000000 0.000000 0.000000 -3.809860 1.157523 9.408910 30.515499 25.062797 13.874702 33.355181 16.479156 9.242924 -21.955875 77.601707 -24.253320 0.000000 0.000000 0.000000 
-1.372939 23.170046 1.045770 -179.132762 6.424435 -179.968204 2.523803 -7.483977 -13.940097 -22.524866 3.497980 -65.602136 23.498284 -0.095727 70.942928 -15.330395 -17.011865 9.084696 0.000000 0.000000 0.000000 4.996443 -1.555908 -11.500458 22.032805 10.363851 -70.590975 -10.296435 -4.919219 78.714515 -10.467612 12.140585 19.371603 0.000000 0.000000 0.000000 0.039367 0.290232 -7.794002 -0.436402 -2.151296 4.879527 -1.424905 -1.666548 9.474175 -0.039923 -0.022851 0.006675 -2.058797 -0.744804 13.525311 -5.183835 2.586005 -5.835822 0.000000 0.000000 0.000000 0.730445 -0.108814 9.786797 -10.067889 -14.680283 11.150759 -29.495598 -12.173707 15.968275 -9.038166 -79.795290 21.058448 0.000000 0.000000 0.000000 -3.788665 1.390927 9.491868 30.509728 24.590650 13.332750 33.551713 17.116435 9.568619 -15.060601 72.072566 -16.963333 0.000000 0.000000 0.000000 
-1.367835 23.271690 0.901332 -179.285185 6.142589 -179.926198 2.261440 -7.364038 -12.812239 -22.393624 2.916200 -66.315495 22.992590 0.481173 70.807533 -14.856102 -16.615313 9.141547 0.000000 0.000000 0.000000 4.772822 -1.602566 -10.411969 22.072508 9.856948 -71.224987 -9.272351 -5.074777 78.845491 -12.204234 11.400009 16.720206 0.000000 0.000000 0.000000 -0.213075 0.367516 -6.708297 -0.157452 -2.304099 5.614181 -1.353868 -1.512455 9.571880 -0.123909 0.081756 -0.017633 -2.228407 -0.525365 13.313893 -5.459082 1.655527 -7.353961 0.000000 0.000000 0.000000 0.584463 -0.004423 9.636327 -10.040650 -14.684685 10.961042 -30.154773 -12.522652 13.303369 -6.479050 -76.415029 17.566628 0.000000 0.000000 0.000000 -3.807250 1.379522 9.454202 30.162706 24.155604 12.535713 33.937434 17.594933 10.187864 -11.736270 67.031497 -13.279257 0.000000 0.000000 0.000000 
-1.344386 23.345732 0.767573 -179.313994 5.852617 -179.942427 2.168806 -7.223904 -11.697387 -22.190226 2.126524 -66.984341 22.571033 0.997815 70.663225 -14.332916 -16.207421 9.099515 0.000000 0.000000 0.000000 4.576418 -1.708076 -9.398543 22.178481 9.369731 -71.749163 -9.618994 -5.546796 79.147877 -12.276809 11.180587 16.182065 0.000000 0.000000 0.000000 -0.243705 0.438240 -5.497434 -0.092467 -2.371938 6.433812 -1.432779 -1.464186 9.521868 -0.132332 -0.018976 -0.034968 -2.158312 -0.436640 13.027617 -5.465562 0.881248 -8.639791 0.000000 0.000000 0.000000 0.633885 0.099126 9.466606 -9.921784 -14.702406 10.886219 -30.754771 -12.927623 10.918647 -5.258982 -73.879643 15.512608 0.000000 0.000000 0.000000 -3.837248 1.484794 9.326492 29.939168 23.756496 11.919438 34.244758 18.074998 10.481761 -10.295323 62.871755 -11.562750 0.000000 0.000000 0.000000 
-1.309063 23.398066 0.662103 -179.422280 5.603885 -179.955896 2.165012 -7.081146 -10.617853 -21.878228 1.124747 -67.603607 22.150679 1.449428 70.334699 -13.742490 -15.743719 9.064103 0.000000 0.000000 0.000000 4.386358 -1.911789 -8.387960 22.472118 8.839732 -72.276215 -9.729498 -5.937195 79.201555 -12.600766 10.964196 15.600869 0.000000 0.000000 0.000000 -0.296042 0.459130 -4.238311 -0.191696 -2.429681 7.270136 -1.458800 -1.418791 9.443471 -0.061732 -0.048313 -0.017631 -2.081519 -0.482618 12.739515 -5.363989 0.519251 -9.525721 0.000000 0.000000 0.000000 0.708202 0.142929 9.195758 -9.718671 -14.914838 10.832495 -31.297354 -13.125456 8.936344 -4.600462 -72.212592 14.094456 0.000000 0.000000 0.000000 -3.813462 1.486284 9.117000 29.589831 23.252279 11.183143 34.528683 18.609421 10.784817 -9.312497 59.637681 -10.351886 0.000000 0.000000 0.000000 
-1.267538 23.451117 0.578016 -179.688507 5.500892 179.992533 2.150043 -6.925764 -9.455225 -21.546578 -0.017076 -68.191004 21.762296 1.901129 69.734114 -13.177230 -15.299357 9.128590 0.000000 0.000000 0.000000 4.274945 -2.087277 -7.358179 22.715459 8.418951 -72.945614 -9.598315 -6.172669 79.137331 -12.902025 10.838524 15.339720 0.000000 0.000000 0.000000 -0.447914 0.438315 -2.957485 -0.380484 -2.435608 8.048240 -1.373247 -1.339833 9.343290 -0.049676 0.009744 -0.047915 -2.066154 -0.483325 12.493919 -5.154062 0.084114 -10.131130 0.000000 0.000000 0.000000 0.697959 0.111039 9.056476 -9.482389 -15.243276 10.567293 -31.800203 -12.947930 7.536274 -4.505940 -71.198821 13.391071 0.000000 0.000000 0.000000 -3.672989 1.418295 8.873127 29.337650 22.639990 10.545067 34.881889 19.147679 11.356562 -8.791154 57.339295 -9.644112 0.000000 0.000000 0.000000 
-1.233985 23.513950 0.501510 -179.772314 5.503895 179.923083 2.234481 -6.718682 -8.245806 -21.142130 -1.345574 -68.706744 21.334910 2.270144 68.973183 -12.594106 -14.899035 9.199096 0.000000 0.000000 0.000000 4.365870 -2.184160 -6.298927 22.798021 8.146525 -73.751283 -9.364153 -6.320561 79.102852 -13.120532 10.789743 15.281712 0.000000 0.000000 0.000000 -0.391261 0.496028 -1.664172 -0.598353 -2.346285 8.767020 -1.338998 -1.312222 9.275675 0.025317 -0.057907 -0.033200 -1.864970 -0.461264 12.342460 -4.619866 -0.015977 -10.358142 0.000000 0.000000 0.000000 0.771598 0.178993 8.903050 -9.306443 -15.596146 10.440528 -32.566277 -12.731863 6.614797 -4.395187 -70.783381 12.743711 0.000000 0.000000 0.000000 -3.598892 1.470738 8.703043 29.188042 22.077292 9.986410 35.052497 19.682256 12.385482 -8.231926 55.625764 -8.890495 0.000000 0.000000 0.000000 
-1.220598 23.590382 0.425165 -179.883250 5.664821 179.957016 2.246985 -6.386398 -6.988019 -20.785169 -2.670887 -69.308942 20.863597 2.672556 68.039066 -12.043206 -14.574287 9.360338 0.000000 0.000000 0.000000 4.455729 -1.938865 -5.222197 22.754106 7.937514 -74.706902 -9.010111 -6.296654 79.185798 -13.289174 10.726673 15.049062 0.000000 0.000000 0.000000 -0.287718 0.545108 -0.528792 -0.835864 -2.255158 9.325511 -1.310596 -1.241333 9.261448 0.092641 -0.053153 -0.022347 -1.801310 -0.302814 12.140882 -4.101627 -0.156448 -10.319566 0.000000 0.000000 0.000000 0.761663 0.293899 8.747038 -9.213775 -15.980358 10.244880 -33.420310 -12.255142 6.001668 -4.028397 -70.530569 11.918796 0.000000 0.000000 0.000000 -3.545438 1.578690 8.504237 29.006454 21.599744 9.384189 35.083243 20.197733 14.160469 -7.800361 54.367401 -8.324546 0.000000 0.000000 0.000000 
-1.218965 23.674149 0.343139 -179.984569 5.800339 -179.998748 2.248397 -5.878533 -5.754683 -20.557143 -3.739292 -69.899753 20.352243 3.065425 67.071378 -11.500522 -14.327070 9.638334 0.000000 0.000000 0.000000 4.527496 -1.451583 -4.108971 22.662011 7.734388 -75.665300 -8.423701 -6.046817 79.383286 -13.512933 10.625481 14.518930 0.000000 0.000000 0.000000 -0.152503 0.781085 0.518604 -1.041265 -2.141596 9.711981 -1.240511 -1.173621 9.196158 -0.000504 -0.071799 -0.030033 -1.659932 -0.450717 12.070961 -3.443308 -0.162021 -10.018759 0.000000 0.000000 0.000000 0.865577 0.440029 8.688527 -9.230657 -16.352586 9.977191 -34.423983 -11.676601 5.536768 -3.309991 -70.492511 10.817877 0.000000 0.000000 0.000000 -3.424148 1.624127 8.408330 28.887093 21.083570 8.819163 34.890164 20.627738 16.304430 -7.251971 53.359678 -7.550826 0.000000 0.000000 0.000000 
-1.226025 23.755718 0.263380 -179.971783 5.924431 179.979774 2.293328 -5.260917 -4.621296 -20.495630 -4.422859 -70.375278 19.802380 3.412667 66.174670 -10.958180 -14.144911 9.953116 0.000000 0.000000 0.000000 4.784105 -0.955930 -3.089511 22.573773 7.540043 -76.492805 -7.672458 -5.653176 79.517090 -13.960690 10.454875 13.818344 0.000000 0.000000 0.000000 0.008325 1.120431 1.502094 -1.184755 -2.082358 10.077083 -1.118065 -1.080386 9.169750 -0.052049 -0.051022 -0.035091 -1.538188 -0.359431 11.919484 -2.767735 -0.135246 -9.484335 0.000000 0.000000 0.000000 0.894563 0.484274 8.615942 -9.113411 -16.769322 9.667959 -35.352424 -11.202383 5.119342 -2.798435 -70.566058 9.957589 0.000000 0.000000 0.000000 -3.341663 1.649756 8.302547 28.730176 20.548501 8.212045 34.428368 21.122350 18.524405 -6.503522 52.576259 -6.544927 0.000000 0.000000 0.000000 
-1.244914 23.833399 0.162052 -179.971291 6.104380 179.973326 2.284887 -4.725092 -3.622621 -20.454415 -5.024573 -70.769571 19.238724 3.652055 65.536758 -10.439373 -14.028027 10.075926 0.000000 0.000000 0.000000 4.936583 -0.557619 -2.174631 22.480755 7.528661 -77.147301 -8.128764 -5.350248 79.896657 -13.717963 10.146365 13.079206 0.000000 0.000000 0.000000 0.143557 1.442652 2.320129 -1.330716 -2.081106 10.405588 -1.051133 -0.956361 9.150363 0.017360 0.011885 -0.013379 -1.418478 -0.230558 11.706749 -2.106861 -0.115593 -8.805618 0.000000 0.000000 0.000000 0.888822 0.541422 8.464729 -9.105744 -17.207328 9.354512 -36.163837 -10.811924 4.770817 -2.045609 -70.551374 8.908552 0.000000 0.000000 0.000000 -3.300956 1.691497 8.084394 28.477294 20.030474 7.684970 33.955804 21.583831 20.156561 -6.061655 51.998855 -5.881361 0.000000 0.000000 0.000000 
-1.268025 23.898052 0.037183 -179.977752 6.302509 179.985675 2.318373 -4.369256 -2.810541 -20.452006 -5.495433 -71.112815 18.623600 3.698278 65.164048 -10.011832 -13.951064 10.024988 0.000000 0.000000 0.000000 5.007254 -0.240082 -1.536972 22.470667 7.439476 -77.536027 -7.687560 -5.147142 80.145440 -13.893174 9.961691 12.489597 0.000000 0.000000 0.000000 0.227592 1.642240 2.968447 -1.492592 -2.190256 10.708024 -0.975400 -0.959688 9.099189 -0.015158 0.061346 -0.006603 -1.259758 -0.041334 11.567705 -1.423480 0.023489 -7.983754 0.000000 0.000000 0.000000 0.967958 0.747175 8.311997 -9.137451 -17.464719 9.031437 -36.878001 -10.892063 4.664944 -1.172997 -70.398630 7.785421 0.000000 0.000000 0.000000 -3.155482 1.831925 8.025127 28.199840 19.596508 7.051057 33.672242 21.942191 21.112277 -5.645778 51.533087 -5.248372 0.000000 0.000000 0.000000 
-1.293810 23.957703 -0.095327 179.985306 6.291928 179.978681 2.378031 -4.313852 -2.090575 -20.534607 -5.838159 -71.461537 17.858633 3.474230 65.001367 -9.741118 -13.879653 9.820836 0.000000 0.000000 0.000000 4.991644 -0.345042 -0.980367 22.482596 7.376151 -77.771758 -7.277067 -5.081569 80.299447 -13.994660 9.750193 12.114931 0.000000 0.000000 0.000000 0.303502 1.731370 3.510353 -1.621130 -2.258762 11.012444 -0.839481 -0.828474 9.060522 -0.007719 -0.039822 -0.010228 -1.090754 -0.004058 11.468843 -0.896437 0.111425 -7.040650 0.000000 0.000000 0.000000 1.059405 0.843204 8.223400 -9.215004 -17.897351 8.584642 -37.537429 -11.211305 4.807900 -0.924685 -70.062851 7.346378 0.000000 0.000000 0.000000 -3.020105 1.883764 7.852138 27.885446 18.940774 6.402817 33.540491 21.995176 21.345594 -5.170840 51.320095 -4.586617 0.000000 0.000000 0.000000 
